<?xml version="1.0" encoding="UTF-8" standalone="no"?>
<!DOCTYPE svg PUBLIC "-//W3C//DTD SVG 1.1//EN"
 "http://www.w3.org/Graphics/SVG/1.1/DTD/svg11.dtd">
<!-- Generated by graphviz version 5.0.1 (20220821.0811)
 -->
<!-- Title: snakemake_dag Pages: 1 -->
<svg width="322pt" height="404pt"
 viewBox="0.00 0.00 322.00 404.00" xmlns="http://www.w3.org/2000/svg" xmlns:xlink="http://www.w3.org/1999/xlink">
<g id="graph0" class="graph" transform="scale(1 1) rotate(0) translate(4 400)">
<title>snakemake_dag</title>
<polygon fill="white" stroke="none" points="-4,4 -4,-400 318,-400 318,4 -4,4"/>
<!-- 0 -->
<g id="node1" class="node">
<title>0</title>
<path fill="none" stroke="#d8a456" stroke-width="2" d="M178,-36C178,-36 148,-36 148,-36 142,-36 136,-30 136,-24 136,-24 136,-12 136,-12 136,-6 142,0 148,0 148,0 178,0 178,0 184,0 190,-6 190,-12 190,-12 190,-24 190,-24 190,-30 184,-36 178,-36"/>
<text text-anchor="middle" x="163" y="-15.5" font-family="sans" font-size="10.00">all</text>
</g>
<!-- 1 -->
<g id="node2" class="node">
<title>1</title>
<path fill="none" stroke="#78d856" stroke-width="2" d="M168,-180C168,-180 12,-180 12,-180 6,-180 0,-174 0,-168 0,-168 0,-156 0,-156 0,-150 6,-144 12,-144 12,-144 168,-144 168,-144 174,-144 180,-150 180,-156 180,-156 180,-168 180,-168 180,-174 174,-180 168,-180"/>
<text text-anchor="middle" x="90" y="-159.5" font-family="sans" font-size="10.00">visualise_genome_graph_metrics</text>
</g>
<!-- 1&#45;&gt;0 -->
<g id="edge1" class="edge">
<title>1&#45;&gt;0</title>
<path fill="none" stroke="grey" stroke-width="2" d="M97.92,-143.77C106.31,-125.72 120.1,-96.63 133,-72 137.68,-63.06 143.05,-53.42 147.93,-44.84"/>
<polygon fill="grey" stroke="grey" stroke-width="2" points="151.04,-46.45 152.99,-36.03 144.97,-42.96 151.04,-46.45"/>
</g>
<!-- 2 -->
<g id="node3" class="node">
<title>2</title>
<path fill="none" stroke="#56d87b" stroke-width="2" d="M142,-252C142,-252 40,-252 40,-252 34,-252 28,-246 28,-240 28,-240 28,-228 28,-228 28,-222 34,-216 40,-216 40,-216 142,-216 142,-216 148,-216 154,-222 154,-228 154,-228 154,-240 154,-240 154,-246 148,-252 142,-252"/>
<text text-anchor="middle" x="91" y="-231.5" font-family="sans" font-size="10.00">gg_structural_analysis</text>
</g>
<!-- 2&#45;&gt;1 -->
<g id="edge3" class="edge">
<title>2&#45;&gt;1</title>
<path fill="none" stroke="grey" stroke-width="2" d="M90.75,-215.7C90.64,-207.98 90.51,-198.71 90.39,-190.11"/>
<polygon fill="grey" stroke="grey" stroke-width="2" points="93.89,-190.05 90.24,-180.1 86.89,-190.15 93.89,-190.05"/>
</g>
<!-- 9 -->
<g id="node10" class="node">
<title>9</title>
<path fill="none" stroke="#56d8c9" stroke-width="2" d="M261.5,-180C261.5,-180 210.5,-180 210.5,-180 204.5,-180 198.5,-174 198.5,-168 198.5,-168 198.5,-156 198.5,-156 198.5,-150 204.5,-144 210.5,-144 210.5,-144 261.5,-144 261.5,-144 267.5,-144 273.5,-150 273.5,-156 273.5,-156 273.5,-168 273.5,-168 273.5,-174 267.5,-180 261.5,-180"/>
<text text-anchor="middle" x="236" y="-159.5" font-family="sans" font-size="10.00">collate_files</text>
</g>
<!-- 2&#45;&gt;9 -->
<g id="edge10" class="edge">
<title>2&#45;&gt;9</title>
<path fill="none" stroke="grey" stroke-width="2" d="M126.47,-215.88C146.12,-206.39 170.72,-194.51 191.63,-184.42"/>
<polygon fill="grey" stroke="grey" stroke-width="2" points="193.16,-187.57 200.64,-180.07 190.12,-181.26 193.16,-187.57"/>
</g>
<!-- 3 -->
<g id="node4" class="node">
<title>3</title>
<path fill="none" stroke="#c6d856" stroke-width="2" d="M133,-324C133,-324 49,-324 49,-324 43,-324 37,-318 37,-312 37,-312 37,-300 37,-300 37,-294 43,-288 49,-288 49,-288 133,-288 133,-288 139,-288 145,-294 145,-300 145,-300 145,-312 145,-312 145,-318 139,-324 133,-324"/>
<text text-anchor="middle" x="91" y="-303.5" font-family="sans" font-size="10.00">construct_gfa_files</text>
</g>
<!-- 3&#45;&gt;2 -->
<g id="edge5" class="edge">
<title>3&#45;&gt;2</title>
<path fill="none" stroke="grey" stroke-width="2" d="M91,-287.7C91,-279.98 91,-270.71 91,-262.11"/>
<polygon fill="grey" stroke="grey" stroke-width="2" points="94.5,-262.1 91,-252.1 87.5,-262.1 94.5,-262.1"/>
</g>
<!-- 4 -->
<g id="node5" class="node">
<title>4</title>
<path fill="none" stroke="#d85656" stroke-width="2" d="M135.5,-396C135.5,-396 46.5,-396 46.5,-396 40.5,-396 34.5,-390 34.5,-384 34.5,-384 34.5,-372 34.5,-372 34.5,-366 40.5,-360 46.5,-360 46.5,-360 135.5,-360 135.5,-360 141.5,-360 147.5,-366 147.5,-372 147.5,-372 147.5,-384 147.5,-384 147.5,-390 141.5,-396 135.5,-396"/>
<text text-anchor="middle" x="91" y="-381" font-family="sans" font-size="10.00">construct_vg_files</text>
<text text-anchor="middle" x="91" y="-370" font-family="sans" font-size="10.00">chromosome: chr22</text>
</g>
<!-- 4&#45;&gt;3 -->
<g id="edge6" class="edge">
<title>4&#45;&gt;3</title>
<path fill="none" stroke="grey" stroke-width="2" d="M91,-359.7C91,-351.98 91,-342.71 91,-334.11"/>
<polygon fill="grey" stroke="grey" stroke-width="2" points="94.5,-334.1 91,-324.1 87.5,-334.1 94.5,-334.1"/>
</g>
<!-- 5 -->
<g id="node6" class="node">
<title>5</title>
<path fill="none" stroke="#56d87b" stroke-width="2" d="M286,-252C286,-252 184,-252 184,-252 178,-252 172,-246 172,-240 172,-240 172,-228 172,-228 172,-222 178,-216 184,-216 184,-216 286,-216 286,-216 292,-216 298,-222 298,-228 298,-228 298,-240 298,-240 298,-246 292,-252 286,-252"/>
<text text-anchor="middle" x="235" y="-231.5" font-family="sans" font-size="10.00">gg_structural_analysis</text>
</g>
<!-- 5&#45;&gt;1 -->
<g id="edge4" class="edge">
<title>5&#45;&gt;1</title>
<path fill="none" stroke="grey" stroke-width="2" d="M199.53,-215.88C179.88,-206.39 155.28,-194.51 134.37,-184.42"/>
<polygon fill="grey" stroke="grey" stroke-width="2" points="135.88,-181.26 125.36,-180.07 132.84,-187.57 135.88,-181.26"/>
</g>
<!-- 5&#45;&gt;9 -->
<g id="edge11" class="edge">
<title>5&#45;&gt;9</title>
<path fill="none" stroke="grey" stroke-width="2" d="M235.25,-215.7C235.36,-207.98 235.49,-198.71 235.61,-190.11"/>
<polygon fill="grey" stroke="grey" stroke-width="2" points="239.11,-190.15 235.76,-180.1 232.11,-190.05 239.11,-190.15"/>
</g>
<!-- 6 -->
<g id="node7" class="node">
<title>6</title>
<path fill="none" stroke="#c6d856" stroke-width="2" d="M277,-324C277,-324 193,-324 193,-324 187,-324 181,-318 181,-312 181,-312 181,-300 181,-300 181,-294 187,-288 193,-288 193,-288 277,-288 277,-288 283,-288 289,-294 289,-300 289,-300 289,-312 289,-312 289,-318 283,-324 277,-324"/>
<text text-anchor="middle" x="235" y="-303.5" font-family="sans" font-size="10.00">construct_gfa_files</text>
</g>
<!-- 6&#45;&gt;5 -->
<g id="edge7" class="edge">
<title>6&#45;&gt;5</title>
<path fill="none" stroke="grey" stroke-width="2" d="M235,-287.7C235,-279.98 235,-270.71 235,-262.11"/>
<polygon fill="grey" stroke="grey" stroke-width="2" points="238.5,-262.1 235,-252.1 231.5,-262.1 238.5,-262.1"/>
</g>
<!-- 7 -->
<g id="node8" class="node">
<title>7</title>
<path fill="none" stroke="#d85656" stroke-width="2" d="M279.5,-396C279.5,-396 190.5,-396 190.5,-396 184.5,-396 178.5,-390 178.5,-384 178.5,-384 178.5,-372 178.5,-372 178.5,-366 184.5,-360 190.5,-360 190.5,-360 279.5,-360 279.5,-360 285.5,-360 291.5,-366 291.5,-372 291.5,-372 291.5,-384 291.5,-384 291.5,-390 285.5,-396 279.5,-396"/>
<text text-anchor="middle" x="235" y="-381" font-family="sans" font-size="10.00">construct_vg_files</text>
<text text-anchor="middle" x="235" y="-370" font-family="sans" font-size="10.00">chromosome: chr21</text>
</g>
<!-- 7&#45;&gt;6 -->
<g id="edge8" class="edge">
<title>7&#45;&gt;6</title>
<path fill="none" stroke="grey" stroke-width="2" d="M235,-359.7C235,-351.98 235,-342.71 235,-334.11"/>
<polygon fill="grey" stroke="grey" stroke-width="2" points="238.5,-334.1 235,-324.1 231.5,-334.1 238.5,-334.1"/>
</g>
<!-- 8 -->
<g id="node9" class="node">
<title>8</title>
<path fill="none" stroke="#56a2d8" stroke-width="2" d="M302,-108C302,-108 154,-108 154,-108 148,-108 142,-102 142,-96 142,-96 142,-84 142,-84 142,-78 148,-72 154,-72 154,-72 302,-72 302,-72 308,-72 314,-78 314,-84 314,-84 314,-96 314,-96 314,-102 308,-108 302,-108"/>
<text text-anchor="middle" x="228" y="-87.5" font-family="sans" font-size="10.00">visualise_genome_graph_circos</text>
</g>
<!-- 8&#45;&gt;0 -->
<g id="edge2" class="edge">
<title>8&#45;&gt;0</title>
<path fill="none" stroke="grey" stroke-width="2" d="M211.93,-71.7C204.06,-63.22 194.44,-52.86 185.83,-43.58"/>
<polygon fill="grey" stroke="grey" stroke-width="2" points="188.25,-41.05 178.88,-36.1 183.12,-45.81 188.25,-41.05"/>
</g>
<!-- 9&#45;&gt;8 -->
<g id="edge9" class="edge">
<title>9&#45;&gt;8</title>
<path fill="none" stroke="grey" stroke-width="2" d="M234.02,-143.7C233.14,-135.98 232.08,-126.71 231.1,-118.11"/>
<polygon fill="grey" stroke="grey" stroke-width="2" points="234.57,-117.64 229.95,-108.1 227.61,-118.44 234.57,-117.64"/>
</g>
</g>
</svg>
