<?xml version="1.0" encoding="UTF-8" standalone="no"?>
<!DOCTYPE svg PUBLIC "-//W3C//DTD SVG 1.1//EN"
 "http://www.w3.org/Graphics/SVG/1.1/DTD/svg11.dtd">
<!-- Generated by graphviz version 5.0.1 (20220821.0811)
 -->
<!-- Title: snakemake_dag Pages: 1 -->
<svg width="278pt" height="404pt"
 viewBox="0.00 0.00 278.00 404.00" xmlns="http://www.w3.org/2000/svg" xmlns:xlink="http://www.w3.org/1999/xlink">
<g id="graph0" class="graph" transform="scale(1 1) rotate(0) translate(4 400)">
<title>snakemake_dag</title>
<polygon fill="white" stroke="none" points="-4,4 -4,-400 274,-400 274,4 -4,4"/>
<!-- 0 -->
<g id="node1" class="node">
<title>0</title>
<path fill="none" stroke="#56a9d8" stroke-width="2" d="M153,-36C153,-36 123,-36 123,-36 117,-36 111,-30 111,-24 111,-24 111,-12 111,-12 111,-6 117,0 123,0 123,0 153,0 153,0 159,0 165,-6 165,-12 165,-12 165,-24 165,-24 165,-30 159,-36 153,-36"/>
<text text-anchor="middle" x="138" y="-15.5" font-family="sans" font-size="10.00">all</text>
</g>
<!-- 1 -->
<g id="node2" class="node">
<title>1</title>
<path fill="none" stroke="#afd856" stroke-width="2" d="M195,-108C195,-108 81,-108 81,-108 75,-108 69,-102 69,-96 69,-96 69,-84 69,-84 69,-78 75,-72 81,-72 81,-72 195,-72 195,-72 201,-72 207,-78 207,-84 207,-84 207,-96 207,-96 207,-102 201,-108 195,-108"/>
<text text-anchor="middle" x="138" y="-87.5" font-family="sans" font-size="10.00">visualise_genome_graph</text>
</g>
<!-- 1&#45;&gt;0 -->
<g id="edge1" class="edge">
<title>1&#45;&gt;0</title>
<path fill="none" stroke="grey" stroke-width="2" d="M138,-71.7C138,-63.98 138,-54.71 138,-46.11"/>
<polygon fill="grey" stroke="grey" stroke-width="2" points="141.5,-46.1 138,-36.1 134.5,-46.1 141.5,-46.1"/>
</g>
<!-- 2 -->
<g id="node3" class="node">
<title>2</title>
<path fill="none" stroke="#d85656" stroke-width="2" d="M258,-252C258,-252 156,-252 156,-252 150,-252 144,-246 144,-240 144,-240 144,-228 144,-228 144,-222 150,-216 156,-216 156,-216 258,-216 258,-216 264,-216 270,-222 270,-228 270,-228 270,-240 270,-240 270,-246 264,-252 258,-252"/>
<text text-anchor="middle" x="207" y="-231.5" font-family="sans" font-size="10.00">gg_structural_analysis</text>
</g>
<!-- 2&#45;&gt;1 -->
<g id="edge2" class="edge">
<title>2&#45;&gt;1</title>
<path fill="none" stroke="grey" stroke-width="2" d="M204.94,-215.76C202.19,-197.18 196.18,-167.17 184,-144 178.62,-133.76 170.9,-123.83 163.32,-115.38"/>
<polygon fill="grey" stroke="grey" stroke-width="2" points="165.87,-112.97 156.47,-108.07 160.76,-117.76 165.87,-112.97"/>
</g>
<!-- 8 -->
<g id="node9" class="node">
<title>8</title>
<path fill="none" stroke="#59d856" stroke-width="2" d="M163.5,-180C163.5,-180 112.5,-180 112.5,-180 106.5,-180 100.5,-174 100.5,-168 100.5,-168 100.5,-156 100.5,-156 100.5,-150 106.5,-144 112.5,-144 112.5,-144 163.5,-144 163.5,-144 169.5,-144 175.5,-150 175.5,-156 175.5,-156 175.5,-168 175.5,-168 175.5,-174 169.5,-180 163.5,-180"/>
<text text-anchor="middle" x="138" y="-159.5" font-family="sans" font-size="10.00">collate_files</text>
</g>
<!-- 2&#45;&gt;8 -->
<g id="edge9" class="edge">
<title>2&#45;&gt;8</title>
<path fill="none" stroke="grey" stroke-width="2" d="M189.94,-215.7C181.5,-207.14 171.18,-196.66 161.96,-187.3"/>
<polygon fill="grey" stroke="grey" stroke-width="2" points="164.37,-184.77 154.86,-180.1 159.39,-189.68 164.37,-184.77"/>
</g>
<!-- 3 -->
<g id="node4" class="node">
<title>3</title>
<path fill="none" stroke="#56d8a9" stroke-width="2" d="M249,-324C249,-324 165,-324 165,-324 159,-324 153,-318 153,-312 153,-312 153,-300 153,-300 153,-294 159,-288 165,-288 165,-288 249,-288 249,-288 255,-288 261,-294 261,-300 261,-300 261,-312 261,-312 261,-318 255,-324 249,-324"/>
<text text-anchor="middle" x="207" y="-303.5" font-family="sans" font-size="10.00">construct_gfa_files</text>
</g>
<!-- 3&#45;&gt;2 -->
<g id="edge5" class="edge">
<title>3&#45;&gt;2</title>
<path fill="none" stroke="grey" stroke-width="2" d="M207,-287.7C207,-279.98 207,-270.71 207,-262.11"/>
<polygon fill="grey" stroke="grey" stroke-width="2" points="210.5,-262.1 207,-252.1 203.5,-262.1 210.5,-262.1"/>
</g>
<!-- 4 -->
<g id="node5" class="node">
<title>4</title>
<path fill="none" stroke="#d8ac56" stroke-width="2" d="M247,-396C247,-396 167,-396 167,-396 161,-396 155,-390 155,-384 155,-384 155,-372 155,-372 155,-366 161,-360 167,-360 167,-360 247,-360 247,-360 253,-360 259,-366 259,-372 259,-372 259,-384 259,-384 259,-390 253,-396 247,-396"/>
<text text-anchor="middle" x="207" y="-381" font-family="sans" font-size="10.00">construct_vg_files</text>
<text text-anchor="middle" x="207" y="-370" font-family="sans" font-size="10.00">contig: chr21</text>
</g>
<!-- 4&#45;&gt;3 -->
<g id="edge6" class="edge">
<title>4&#45;&gt;3</title>
<path fill="none" stroke="grey" stroke-width="2" d="M207,-359.7C207,-351.98 207,-342.71 207,-334.11"/>
<polygon fill="grey" stroke="grey" stroke-width="2" points="210.5,-334.1 207,-324.1 203.5,-334.1 210.5,-334.1"/>
</g>
<!-- 5 -->
<g id="node6" class="node">
<title>5</title>
<path fill="none" stroke="#d85656" stroke-width="2" d="M114,-252C114,-252 12,-252 12,-252 6,-252 0,-246 0,-240 0,-240 0,-228 0,-228 0,-222 6,-216 12,-216 12,-216 114,-216 114,-216 120,-216 126,-222 126,-228 126,-228 126,-240 126,-240 126,-246 120,-252 114,-252"/>
<text text-anchor="middle" x="63" y="-231.5" font-family="sans" font-size="10.00">gg_structural_analysis</text>
</g>
<!-- 5&#45;&gt;1 -->
<g id="edge3" class="edge">
<title>5&#45;&gt;1</title>
<path fill="none" stroke="grey" stroke-width="2" d="M66.18,-215.74C70.1,-197.14 77.91,-167.12 91,-144 96.75,-133.84 104.7,-123.93 112.43,-115.47"/>
<polygon fill="grey" stroke="grey" stroke-width="2" points="115.03,-117.81 119.39,-108.16 109.96,-112.99 115.03,-117.81"/>
</g>
<!-- 5&#45;&gt;8 -->
<g id="edge10" class="edge">
<title>5&#45;&gt;8</title>
<path fill="none" stroke="grey" stroke-width="2" d="M81.54,-215.7C90.8,-207.05 102.16,-196.45 112.26,-187.03"/>
<polygon fill="grey" stroke="grey" stroke-width="2" points="114.75,-189.49 119.67,-180.1 109.98,-184.37 114.75,-189.49"/>
</g>
<!-- 6 -->
<g id="node7" class="node">
<title>6</title>
<path fill="none" stroke="#56d8a9" stroke-width="2" d="M105,-324C105,-324 21,-324 21,-324 15,-324 9,-318 9,-312 9,-312 9,-300 9,-300 9,-294 15,-288 21,-288 21,-288 105,-288 105,-288 111,-288 117,-294 117,-300 117,-300 117,-312 117,-312 117,-318 111,-324 105,-324"/>
<text text-anchor="middle" x="63" y="-303.5" font-family="sans" font-size="10.00">construct_gfa_files</text>
</g>
<!-- 6&#45;&gt;5 -->
<g id="edge7" class="edge">
<title>6&#45;&gt;5</title>
<path fill="none" stroke="grey" stroke-width="2" d="M63,-287.7C63,-279.98 63,-270.71 63,-262.11"/>
<polygon fill="grey" stroke="grey" stroke-width="2" points="66.5,-262.1 63,-252.1 59.5,-262.1 66.5,-262.1"/>
</g>
<!-- 7 -->
<g id="node8" class="node">
<title>7</title>
<path fill="none" stroke="#d8ac56" stroke-width="2" d="M103,-396C103,-396 23,-396 23,-396 17,-396 11,-390 11,-384 11,-384 11,-372 11,-372 11,-366 17,-360 23,-360 23,-360 103,-360 103,-360 109,-360 115,-366 115,-372 115,-372 115,-384 115,-384 115,-390 109,-396 103,-396"/>
<text text-anchor="middle" x="63" y="-381" font-family="sans" font-size="10.00">construct_vg_files</text>
<text text-anchor="middle" x="63" y="-370" font-family="sans" font-size="10.00">contig: chr22</text>
</g>
<!-- 7&#45;&gt;6 -->
<g id="edge8" class="edge">
<title>7&#45;&gt;6</title>
<path fill="none" stroke="grey" stroke-width="2" d="M63,-359.7C63,-351.98 63,-342.71 63,-334.11"/>
<polygon fill="grey" stroke="grey" stroke-width="2" points="66.5,-334.1 63,-324.1 59.5,-334.1 66.5,-334.1"/>
</g>
<!-- 8&#45;&gt;1 -->
<g id="edge4" class="edge">
<title>8&#45;&gt;1</title>
<path fill="none" stroke="grey" stroke-width="2" d="M138,-143.7C138,-135.98 138,-126.71 138,-118.11"/>
<polygon fill="grey" stroke="grey" stroke-width="2" points="141.5,-118.1 138,-108.1 134.5,-118.1 141.5,-118.1"/>
</g>
</g>
</svg>
