<?xml version="1.0" encoding="UTF-8" standalone="no"?>
<!DOCTYPE svg PUBLIC "-//W3C//DTD SVG 1.1//EN"
 "http://www.w3.org/Graphics/SVG/1.1/DTD/svg11.dtd">
<!-- Generated by graphviz version 5.0.1 (20220821.0811)
 -->
<!-- Title: snakemake_dag Pages: 1 -->
<svg width="272pt" height="764pt"
 viewBox="0.00 0.00 272.00 764.00" xmlns="http://www.w3.org/2000/svg" xmlns:xlink="http://www.w3.org/1999/xlink">
<g id="graph0" class="graph" transform="scale(1 1) rotate(0) translate(4 760)">
<title>snakemake_dag</title>
<polygon fill="white" stroke="none" points="-4,4 -4,-760 268,-760 268,4 -4,4"/>
<!-- 0 -->
<g id="node1" class="node">
<title>0</title>
<path fill="none" stroke="#d85656" stroke-width="2" d="M132.5,-36C132.5,-36 102.5,-36 102.5,-36 96.5,-36 90.5,-30 90.5,-24 90.5,-24 90.5,-12 90.5,-12 90.5,-6 96.5,0 102.5,0 102.5,0 132.5,0 132.5,0 138.5,0 144.5,-6 144.5,-12 144.5,-12 144.5,-24 144.5,-24 144.5,-30 138.5,-36 132.5,-36"/>
<text text-anchor="middle" x="117.5" y="-15.5" font-family="sans" font-size="10.00">all</text>
</g>
<!-- 1 -->
<g id="node2" class="node">
<title>1</title>
<path fill="none" stroke="#56d8c9" stroke-width="2" d="M159,-108C159,-108 76,-108 76,-108 70,-108 64,-102 64,-96 64,-96 64,-84 64,-84 64,-78 70,-72 76,-72 76,-72 159,-72 159,-72 165,-72 171,-78 171,-84 171,-84 171,-96 171,-96 171,-102 165,-108 159,-108"/>
<text text-anchor="middle" x="117.5" y="-87.5" font-family="sans" font-size="10.00">get_variants_stats</text>
</g>
<!-- 1&#45;&gt;0 -->
<g id="edge1" class="edge">
<title>1&#45;&gt;0</title>
<path fill="none" stroke="grey" stroke-width="2" d="M117.5,-71.7C117.5,-63.98 117.5,-54.71 117.5,-46.11"/>
<polygon fill="grey" stroke="grey" stroke-width="2" points="121,-46.1 117.5,-36.1 114,-46.1 121,-46.1"/>
</g>
<!-- 2 -->
<g id="node3" class="node">
<title>2</title>
<path fill="none" stroke="#70d856" stroke-width="2" d="M96.5,-180C96.5,-180 26.5,-180 26.5,-180 20.5,-180 14.5,-174 14.5,-168 14.5,-168 14.5,-156 14.5,-156 14.5,-150 20.5,-144 26.5,-144 26.5,-144 96.5,-144 96.5,-144 102.5,-144 108.5,-150 108.5,-156 108.5,-156 108.5,-168 108.5,-168 108.5,-174 102.5,-180 96.5,-180"/>
<text text-anchor="middle" x="61.5" y="-159.5" font-family="sans" font-size="10.00">variant_filtering</text>
</g>
<!-- 2&#45;&gt;1 -->
<g id="edge2" class="edge">
<title>2&#45;&gt;1</title>
<path fill="none" stroke="grey" stroke-width="2" d="M75.34,-143.7C81.99,-135.39 90.08,-125.28 97.39,-116.14"/>
<polygon fill="grey" stroke="grey" stroke-width="2" points="100.3,-118.1 103.82,-108.1 94.84,-113.73 100.3,-118.1"/>
</g>
<!-- 3 -->
<g id="node4" class="node">
<title>3</title>
<path fill="none" stroke="#d88556" stroke-width="2" d="M97,-252C97,-252 12,-252 12,-252 6,-252 0,-246 0,-240 0,-240 0,-228 0,-228 0,-222 6,-216 12,-216 12,-216 97,-216 97,-216 103,-216 109,-222 109,-228 109,-228 109,-240 109,-240 109,-246 103,-252 97,-252"/>
<text text-anchor="middle" x="54.5" y="-231.5" font-family="sans" font-size="10.00">variant_processing</text>
</g>
<!-- 3&#45;&gt;2 -->
<g id="edge4" class="edge">
<title>3&#45;&gt;2</title>
<path fill="none" stroke="grey" stroke-width="2" d="M56.23,-215.7C57,-207.98 57.93,-198.71 58.79,-190.11"/>
<polygon fill="grey" stroke="grey" stroke-width="2" points="62.28,-190.4 59.79,-180.1 55.31,-189.71 62.28,-190.4"/>
</g>
<!-- 4 -->
<g id="node5" class="node">
<title>4</title>
<path fill="none" stroke="#56d89a" stroke-width="2" d="M96,-324C96,-324 13,-324 13,-324 7,-324 1,-318 1,-312 1,-312 1,-300 1,-300 1,-294 7,-288 13,-288 13,-288 96,-288 96,-288 102,-288 108,-294 108,-300 108,-300 108,-312 108,-312 108,-318 102,-324 96,-324"/>
<text text-anchor="middle" x="54.5" y="-303.5" font-family="sans" font-size="10.00">freebayes_parallel</text>
</g>
<!-- 4&#45;&gt;3 -->
<g id="edge5" class="edge">
<title>4&#45;&gt;3</title>
<path fill="none" stroke="grey" stroke-width="2" d="M54.5,-287.7C54.5,-279.98 54.5,-270.71 54.5,-262.11"/>
<polygon fill="grey" stroke="grey" stroke-width="2" points="58,-262.1 54.5,-252.1 51,-262.1 58,-262.1"/>
</g>
<!-- 5 -->
<g id="node6" class="node">
<title>5</title>
<path fill="none" stroke="#56b1d8" stroke-width="2" d="M93.5,-468C93.5,-468 19.5,-468 19.5,-468 13.5,-468 7.5,-462 7.5,-456 7.5,-456 7.5,-444 7.5,-444 7.5,-438 13.5,-432 19.5,-432 19.5,-432 93.5,-432 93.5,-432 99.5,-432 105.5,-438 105.5,-444 105.5,-444 105.5,-456 105.5,-456 105.5,-462 99.5,-468 93.5,-468"/>
<text text-anchor="middle" x="56.5" y="-447.5" font-family="sans" font-size="10.00">mark_duplicates</text>
</g>
<!-- 5&#45;&gt;4 -->
<g id="edge6" class="edge">
<title>5&#45;&gt;4</title>
<path fill="none" stroke="grey" stroke-width="2" d="M43.77,-431.85C37.21,-421.92 29.89,-408.88 26.5,-396 22.42,-380.53 22.65,-375.53 26.5,-360 28.79,-350.75 33.03,-341.34 37.52,-333.07"/>
<polygon fill="grey" stroke="grey" stroke-width="2" points="40.63,-334.68 42.61,-324.28 34.57,-331.17 40.63,-334.68"/>
</g>
<!-- 10 -->
<g id="node11" class="node">
<title>10</title>
<path fill="none" stroke="#ced856" stroke-width="2" d="M95,-396C95,-396 48,-396 48,-396 42,-396 36,-390 36,-384 36,-384 36,-372 36,-372 36,-366 42,-360 48,-360 48,-360 95,-360 95,-360 101,-360 107,-366 107,-372 107,-372 107,-384 107,-384 107,-390 101,-396 95,-396"/>
<text text-anchor="middle" x="71.5" y="-375.5" font-family="sans" font-size="10.00">index_bam</text>
</g>
<!-- 5&#45;&gt;10 -->
<g id="edge12" class="edge">
<title>5&#45;&gt;10</title>
<path fill="none" stroke="grey" stroke-width="2" d="M60.21,-431.7C61.86,-423.98 63.85,-414.71 65.69,-406.11"/>
<polygon fill="grey" stroke="grey" stroke-width="2" points="69.16,-406.62 67.83,-396.1 62.32,-405.15 69.16,-406.62"/>
</g>
<!-- 6 -->
<g id="node7" class="node">
<title>6</title>
<path fill="none" stroke="#9fd856" stroke-width="2" d="M75.5,-540C75.5,-540 37.5,-540 37.5,-540 31.5,-540 25.5,-534 25.5,-528 25.5,-528 25.5,-516 25.5,-516 25.5,-510 31.5,-504 37.5,-504 37.5,-504 75.5,-504 75.5,-504 81.5,-504 87.5,-510 87.5,-516 87.5,-516 87.5,-528 87.5,-528 87.5,-534 81.5,-540 75.5,-540"/>
<text text-anchor="middle" x="56.5" y="-519.5" font-family="sans" font-size="10.00">sort_bam</text>
</g>
<!-- 6&#45;&gt;5 -->
<g id="edge8" class="edge">
<title>6&#45;&gt;5</title>
<path fill="none" stroke="grey" stroke-width="2" d="M56.5,-503.7C56.5,-495.98 56.5,-486.71 56.5,-478.11"/>
<polygon fill="grey" stroke="grey" stroke-width="2" points="60,-478.1 56.5,-468.1 53,-478.1 60,-478.1"/>
</g>
<!-- 7 -->
<g id="node8" class="node">
<title>7</title>
<path fill="none" stroke="#5682d8" stroke-width="2" d="M92,-612C92,-612 21,-612 21,-612 15,-612 9,-606 9,-600 9,-600 9,-588 9,-588 9,-582 15,-576 21,-576 21,-576 92,-576 92,-576 98,-576 104,-582 104,-588 104,-588 104,-600 104,-600 104,-606 98,-612 92,-612"/>
<text text-anchor="middle" x="56.5" y="-591.5" font-family="sans" font-size="10.00">add_readgroups</text>
</g>
<!-- 7&#45;&gt;6 -->
<g id="edge9" class="edge">
<title>7&#45;&gt;6</title>
<path fill="none" stroke="grey" stroke-width="2" d="M56.5,-575.7C56.5,-567.98 56.5,-558.71 56.5,-550.11"/>
<polygon fill="grey" stroke="grey" stroke-width="2" points="60,-550.1 56.5,-540.1 53,-550.1 60,-550.1"/>
</g>
<!-- 8 -->
<g id="node9" class="node">
<title>8</title>
<path fill="none" stroke="#d8b456" stroke-width="2" d="M78,-684C78,-684 35,-684 35,-684 29,-684 23,-678 23,-672 23,-672 23,-660 23,-660 23,-654 29,-648 35,-648 35,-648 78,-648 78,-648 84,-648 90,-654 90,-660 90,-660 90,-672 90,-672 90,-678 84,-684 78,-684"/>
<text text-anchor="middle" x="56.5" y="-663.5" font-family="sans" font-size="10.00">vg_surject</text>
</g>
<!-- 8&#45;&gt;7 -->
<g id="edge10" class="edge">
<title>8&#45;&gt;7</title>
<path fill="none" stroke="grey" stroke-width="2" d="M56.5,-647.7C56.5,-639.98 56.5,-630.71 56.5,-622.11"/>
<polygon fill="grey" stroke="grey" stroke-width="2" points="60,-622.1 56.5,-612.1 53,-622.1 60,-622.1"/>
</g>
<!-- 9 -->
<g id="node10" class="node">
<title>9</title>
<path fill="none" stroke="#56d86b" stroke-width="2" d="M90.5,-756C90.5,-756 22.5,-756 22.5,-756 16.5,-756 10.5,-750 10.5,-744 10.5,-744 10.5,-732 10.5,-732 10.5,-726 16.5,-720 22.5,-720 22.5,-720 90.5,-720 90.5,-720 96.5,-720 102.5,-726 102.5,-732 102.5,-732 102.5,-744 102.5,-744 102.5,-750 96.5,-756 90.5,-756"/>
<text text-anchor="middle" x="56.5" y="-741" font-family="sans" font-size="10.00">vg_giraffe</text>
<text text-anchor="middle" x="56.5" y="-730" font-family="sans" font-size="10.00">sample: HG001</text>
</g>
<!-- 9&#45;&gt;8 -->
<g id="edge11" class="edge">
<title>9&#45;&gt;8</title>
<path fill="none" stroke="grey" stroke-width="2" d="M56.5,-719.7C56.5,-711.98 56.5,-702.71 56.5,-694.11"/>
<polygon fill="grey" stroke="grey" stroke-width="2" points="60,-694.1 56.5,-684.1 53,-694.1 60,-694.1"/>
</g>
<!-- 10&#45;&gt;4 -->
<g id="edge7" class="edge">
<title>10&#45;&gt;4</title>
<path fill="none" stroke="grey" stroke-width="2" d="M67.3,-359.7C65.4,-351.9 63.12,-342.51 61.02,-333.83"/>
<polygon fill="grey" stroke="grey" stroke-width="2" points="64.42,-333 58.65,-324.1 57.61,-334.65 64.42,-333"/>
</g>
<!-- 11 -->
<g id="node12" class="node">
<title>11</title>
<path fill="none" stroke="#70d856" stroke-width="2" d="M212.5,-180C212.5,-180 142.5,-180 142.5,-180 136.5,-180 130.5,-174 130.5,-168 130.5,-168 130.5,-156 130.5,-156 130.5,-150 136.5,-144 142.5,-144 142.5,-144 212.5,-144 212.5,-144 218.5,-144 224.5,-150 224.5,-156 224.5,-156 224.5,-168 224.5,-168 224.5,-174 218.5,-180 212.5,-180"/>
<text text-anchor="middle" x="177.5" y="-159.5" font-family="sans" font-size="10.00">variant_filtering</text>
</g>
<!-- 11&#45;&gt;1 -->
<g id="edge3" class="edge">
<title>11&#45;&gt;1</title>
<path fill="none" stroke="grey" stroke-width="2" d="M162.67,-143.7C155.48,-135.3 146.7,-125.07 138.81,-115.86"/>
<polygon fill="grey" stroke="grey" stroke-width="2" points="141.33,-113.42 132.16,-108.1 136.01,-117.97 141.33,-113.42"/>
</g>
<!-- 12 -->
<g id="node13" class="node">
<title>12</title>
<path fill="none" stroke="#d88556" stroke-width="2" d="M224,-252C224,-252 139,-252 139,-252 133,-252 127,-246 127,-240 127,-240 127,-228 127,-228 127,-222 133,-216 139,-216 139,-216 224,-216 224,-216 230,-216 236,-222 236,-228 236,-228 236,-240 236,-240 236,-246 230,-252 224,-252"/>
<text text-anchor="middle" x="181.5" y="-231.5" font-family="sans" font-size="10.00">variant_processing</text>
</g>
<!-- 12&#45;&gt;11 -->
<g id="edge13" class="edge">
<title>12&#45;&gt;11</title>
<path fill="none" stroke="grey" stroke-width="2" d="M180.51,-215.7C180.07,-207.98 179.54,-198.71 179.05,-190.11"/>
<polygon fill="grey" stroke="grey" stroke-width="2" points="182.54,-189.89 178.48,-180.1 175.55,-190.29 182.54,-189.89"/>
</g>
<!-- 13 -->
<g id="node14" class="node">
<title>13</title>
<path fill="none" stroke="#56d89a" stroke-width="2" d="M223,-324C223,-324 140,-324 140,-324 134,-324 128,-318 128,-312 128,-312 128,-300 128,-300 128,-294 134,-288 140,-288 140,-288 223,-288 223,-288 229,-288 235,-294 235,-300 235,-300 235,-312 235,-312 235,-318 229,-324 223,-324"/>
<text text-anchor="middle" x="181.5" y="-303.5" font-family="sans" font-size="10.00">freebayes_parallel</text>
</g>
<!-- 13&#45;&gt;12 -->
<g id="edge14" class="edge">
<title>13&#45;&gt;12</title>
<path fill="none" stroke="grey" stroke-width="2" d="M181.5,-287.7C181.5,-279.98 181.5,-270.71 181.5,-262.11"/>
<polygon fill="grey" stroke="grey" stroke-width="2" points="185,-262.1 181.5,-252.1 178,-262.1 185,-262.1"/>
</g>
<!-- 14 -->
<g id="node15" class="node">
<title>14</title>
<path fill="none" stroke="#56b1d8" stroke-width="2" d="M215.5,-468C215.5,-468 141.5,-468 141.5,-468 135.5,-468 129.5,-462 129.5,-456 129.5,-456 129.5,-444 129.5,-444 129.5,-438 135.5,-432 141.5,-432 141.5,-432 215.5,-432 215.5,-432 221.5,-432 227.5,-438 227.5,-444 227.5,-444 227.5,-456 227.5,-456 227.5,-462 221.5,-468 215.5,-468"/>
<text text-anchor="middle" x="178.5" y="-447.5" font-family="sans" font-size="10.00">mark_duplicates</text>
</g>
<!-- 14&#45;&gt;13 -->
<g id="edge15" class="edge">
<title>14&#45;&gt;13</title>
<path fill="none" stroke="grey" stroke-width="2" d="M178.86,-431.87C179.37,-407.67 180.31,-363.21 180.92,-334.39"/>
<polygon fill="grey" stroke="grey" stroke-width="2" points="184.42,-334.26 181.14,-324.19 177.43,-334.11 184.42,-334.26"/>
</g>
<!-- 19 -->
<g id="node20" class="node">
<title>19</title>
<path fill="none" stroke="#ced856" stroke-width="2" d="M252,-396C252,-396 205,-396 205,-396 199,-396 193,-390 193,-384 193,-384 193,-372 193,-372 193,-366 199,-360 205,-360 205,-360 252,-360 252,-360 258,-360 264,-366 264,-372 264,-372 264,-384 264,-384 264,-390 258,-396 252,-396"/>
<text text-anchor="middle" x="228.5" y="-375.5" font-family="sans" font-size="10.00">index_bam</text>
</g>
<!-- 14&#45;&gt;19 -->
<g id="edge21" class="edge">
<title>14&#45;&gt;19</title>
<path fill="none" stroke="grey" stroke-width="2" d="M190.86,-431.7C196.73,-423.47 203.87,-413.48 210.34,-404.42"/>
<polygon fill="grey" stroke="grey" stroke-width="2" points="213.32,-406.28 216.28,-396.1 207.62,-402.21 213.32,-406.28"/>
</g>
<!-- 15 -->
<g id="node16" class="node">
<title>15</title>
<path fill="none" stroke="#9fd856" stroke-width="2" d="M197.5,-540C197.5,-540 159.5,-540 159.5,-540 153.5,-540 147.5,-534 147.5,-528 147.5,-528 147.5,-516 147.5,-516 147.5,-510 153.5,-504 159.5,-504 159.5,-504 197.5,-504 197.5,-504 203.5,-504 209.5,-510 209.5,-516 209.5,-516 209.5,-528 209.5,-528 209.5,-534 203.5,-540 197.5,-540"/>
<text text-anchor="middle" x="178.5" y="-519.5" font-family="sans" font-size="10.00">sort_bam</text>
</g>
<!-- 15&#45;&gt;14 -->
<g id="edge17" class="edge">
<title>15&#45;&gt;14</title>
<path fill="none" stroke="grey" stroke-width="2" d="M178.5,-503.7C178.5,-495.98 178.5,-486.71 178.5,-478.11"/>
<polygon fill="grey" stroke="grey" stroke-width="2" points="182,-478.1 178.5,-468.1 175,-478.1 182,-478.1"/>
</g>
<!-- 16 -->
<g id="node17" class="node">
<title>16</title>
<path fill="none" stroke="#5682d8" stroke-width="2" d="M214,-612C214,-612 143,-612 143,-612 137,-612 131,-606 131,-600 131,-600 131,-588 131,-588 131,-582 137,-576 143,-576 143,-576 214,-576 214,-576 220,-576 226,-582 226,-588 226,-588 226,-600 226,-600 226,-606 220,-612 214,-612"/>
<text text-anchor="middle" x="178.5" y="-591.5" font-family="sans" font-size="10.00">add_readgroups</text>
</g>
<!-- 16&#45;&gt;15 -->
<g id="edge18" class="edge">
<title>16&#45;&gt;15</title>
<path fill="none" stroke="grey" stroke-width="2" d="M178.5,-575.7C178.5,-567.98 178.5,-558.71 178.5,-550.11"/>
<polygon fill="grey" stroke="grey" stroke-width="2" points="182,-550.1 178.5,-540.1 175,-550.1 182,-550.1"/>
</g>
<!-- 17 -->
<g id="node18" class="node">
<title>17</title>
<path fill="none" stroke="#d8b456" stroke-width="2" d="M200,-684C200,-684 157,-684 157,-684 151,-684 145,-678 145,-672 145,-672 145,-660 145,-660 145,-654 151,-648 157,-648 157,-648 200,-648 200,-648 206,-648 212,-654 212,-660 212,-660 212,-672 212,-672 212,-678 206,-684 200,-684"/>
<text text-anchor="middle" x="178.5" y="-663.5" font-family="sans" font-size="10.00">vg_surject</text>
</g>
<!-- 17&#45;&gt;16 -->
<g id="edge19" class="edge">
<title>17&#45;&gt;16</title>
<path fill="none" stroke="grey" stroke-width="2" d="M178.5,-647.7C178.5,-639.98 178.5,-630.71 178.5,-622.11"/>
<polygon fill="grey" stroke="grey" stroke-width="2" points="182,-622.1 178.5,-612.1 175,-622.1 182,-622.1"/>
</g>
<!-- 18 -->
<g id="node19" class="node">
<title>18</title>
<path fill="none" stroke="#56d86b" stroke-width="2" d="M212.5,-756C212.5,-756 144.5,-756 144.5,-756 138.5,-756 132.5,-750 132.5,-744 132.5,-744 132.5,-732 132.5,-732 132.5,-726 138.5,-720 144.5,-720 144.5,-720 212.5,-720 212.5,-720 218.5,-720 224.5,-726 224.5,-732 224.5,-732 224.5,-744 224.5,-744 224.5,-750 218.5,-756 212.5,-756"/>
<text text-anchor="middle" x="178.5" y="-741" font-family="sans" font-size="10.00">vg_giraffe</text>
<text text-anchor="middle" x="178.5" y="-730" font-family="sans" font-size="10.00">sample: HG002</text>
</g>
<!-- 18&#45;&gt;17 -->
<g id="edge20" class="edge">
<title>18&#45;&gt;17</title>
<path fill="none" stroke="grey" stroke-width="2" d="M178.5,-719.7C178.5,-711.98 178.5,-702.71 178.5,-694.11"/>
<polygon fill="grey" stroke="grey" stroke-width="2" points="182,-694.1 178.5,-684.1 175,-694.1 182,-694.1"/>
</g>
<!-- 19&#45;&gt;13 -->
<g id="edge16" class="edge">
<title>19&#45;&gt;13</title>
<path fill="none" stroke="grey" stroke-width="2" d="M216.88,-359.7C211.36,-351.47 204.65,-341.48 198.57,-332.42"/>
<polygon fill="grey" stroke="grey" stroke-width="2" points="201.46,-330.46 192.98,-324.1 195.65,-334.36 201.46,-330.46"/>
</g>
</g>
</svg>
